<svg xmlns="http://www.w3.org/2000/svg" width="86" height="28" viewBox="0 0 86 28">
  <rect x="0.5" y="0.5" width="85" height="27" rx="6" fill="#f5f5f7" stroke="#e5e5e7" stroke-width="1"/>
  <g transform="translate(10, 6)">
    <path d="M3,5 c-1,0 -2,1 -2,2 s1,2 2,2 s2,-1 2,-2 Z M13,5 c-1,0 -2,1 -2,2 s1,2 2,2 s2,-1 2,-2 Z M8,7 c-2.5,0 -4,1.5 -4,3.5 s1.5,3.5 4,3.5 s4,-1.5 4,-3.5 s-1.5,-3.5 -4,-3.5" fill="#150458"/><circle cx="6" cy="10.5" r="0.8" fill="#ffffff"/><circle cx="10" cy="10.5" r="0.8" fill="#ffffff"/>
  </g>
  <text x="34" y="17.5" font-family="-apple-system, BlinkMacSystemFont, 'Segoe UI', Roboto, Helvetica, Arial, sans-serif" font-size="11.5" font-weight="500" fill="#1d1d1f">Pandas</text>
</svg>